<svg width="1280" height="640" viewBox="0 0 1280 640" fill="none" xmlns="http://www.w3.org/2000/svg">
<path d="M912.2 567.571C908.573 567.571 905.4 566.771 902.68 565.171C899.96 563.571 897.827 561.144 896.28 557.891C894.787 554.584 894.04 550.424 894.04 545.411C894.04 540.344 894.76 536.184 896.2 532.931C897.64 529.678 899.72 527.251 902.44 525.651C905.16 524.051 908.413 523.251 912.2 523.251C916.253 523.251 919.88 524.184 923.08 526.051C926.333 527.864 928.893 530.424 930.76 533.731C932.68 537.038 933.64 540.931 933.64 545.411C933.64 549.944 932.68 553.864 930.76 557.171C928.893 560.478 926.333 563.038 923.08 564.851C919.88 566.664 916.253 567.571 912.2 567.571ZM886.76 582.451V523.891H898.68V532.691L898.44 545.491L899.24 558.211V582.451H886.76ZM910.04 557.331C912.12 557.331 913.96 556.851 915.56 555.891C917.213 554.931 918.52 553.571 919.48 551.811C920.493 549.998 921 547.864 921 545.411C921 542.904 920.493 540.771 919.48 539.011C918.52 537.251 917.213 535.891 915.56 534.931C913.96 533.971 912.12 533.491 910.04 533.491C907.96 533.491 906.093 533.971 904.44 534.931C902.787 535.891 901.48 537.251 900.52 539.011C899.56 540.771 899.08 542.904 899.08 545.411C899.08 547.864 899.56 549.998 900.52 551.811C901.48 553.571 902.787 554.931 904.44 555.891C906.093 556.851 907.96 557.331 910.04 557.331ZM962.474 567.571C957.888 567.571 953.808 566.611 950.234 564.691C946.714 562.771 943.914 560.158 941.834 556.851C939.808 553.491 938.794 549.678 938.794 545.411C938.794 541.091 939.808 537.278 941.834 533.971C943.914 530.611 946.714 527.998 950.234 526.131C953.808 524.211 957.888 523.251 962.474 523.251C967.008 523.251 971.061 524.211 974.634 526.131C978.208 527.998 981.008 530.584 983.034 533.891C985.061 537.198 986.074 541.038 986.074 545.411C986.074 549.678 985.061 553.491 983.034 556.851C981.008 560.158 978.208 562.771 974.634 564.691C971.061 566.611 967.008 567.571 962.474 567.571ZM962.474 557.331C964.554 557.331 966.421 556.851 968.074 555.891C969.728 554.931 971.034 553.571 971.994 551.811C972.954 549.998 973.434 547.864 973.434 545.411C973.434 542.904 972.954 540.771 971.994 539.011C971.034 537.251 969.728 535.891 968.074 534.931C966.421 533.971 964.554 533.491 962.474 533.491C960.394 533.491 958.528 533.971 956.874 534.931C955.221 535.891 953.888 537.251 952.874 539.011C951.914 540.771 951.434 542.904 951.434 545.411C951.434 547.864 951.914 549.998 952.874 551.811C953.888 553.571 955.221 554.931 956.874 555.891C958.528 556.851 960.394 557.331 962.474 557.331ZM994.416 566.931V507.571H1006.9V566.931H994.416ZM1044.88 566.931V558.531L1044.08 556.691V541.651C1044.08 538.984 1043.25 536.904 1041.6 535.411C1040 533.918 1037.52 533.171 1034.16 533.171C1031.87 533.171 1029.6 533.544 1027.36 534.291C1025.17 534.984 1023.31 535.944 1021.76 537.171L1017.28 528.451C1019.63 526.798 1022.45 525.518 1025.76 524.611C1029.07 523.704 1032.43 523.251 1035.84 523.251C1042.4 523.251 1047.49 524.798 1051.12 527.891C1054.75 530.984 1056.56 535.811 1056.56 542.371V566.931H1044.88ZM1031.76 567.571C1028.4 567.571 1025.52 567.011 1023.12 565.891C1020.72 564.718 1018.88 563.144 1017.6 561.171C1016.32 559.198 1015.68 556.984 1015.68 554.531C1015.68 551.971 1016.29 549.731 1017.52 547.811C1018.8 545.891 1020.8 544.398 1023.52 543.331C1026.24 542.211 1029.79 541.651 1034.16 541.651H1045.6V548.931H1035.52C1032.59 548.931 1030.56 549.411 1029.44 550.371C1028.37 551.331 1027.84 552.531 1027.84 553.971C1027.84 555.571 1028.45 556.851 1029.68 557.811C1030.96 558.718 1032.69 559.171 1034.88 559.171C1036.96 559.171 1038.83 558.691 1040.48 557.731C1042.13 556.718 1043.33 555.251 1044.08 553.331L1046 559.091C1045.09 561.864 1043.44 563.971 1041.04 565.411C1038.64 566.851 1035.55 567.571 1031.76 567.571ZM1067.85 566.931V523.891H1079.77V536.051L1078.09 532.531C1079.37 529.491 1081.43 527.198 1084.25 525.651C1087.08 524.051 1090.52 523.251 1094.57 523.251V534.771C1094.04 534.718 1093.56 534.691 1093.13 534.691C1092.71 534.638 1092.25 534.611 1091.77 534.611C1088.36 534.611 1085.59 535.598 1083.45 537.571C1081.37 539.491 1080.33 542.504 1080.33 546.611V566.931H1067.85ZM1102.07 566.931V523.891H1114.55V566.931H1102.07ZM1108.31 517.891C1106.02 517.891 1104.15 517.224 1102.71 515.891C1101.27 514.558 1100.55 512.904 1100.55 510.931C1100.55 508.958 1101.27 507.304 1102.71 505.971C1104.15 504.638 1106.02 503.971 1108.31 503.971C1110.61 503.971 1112.47 504.611 1113.91 505.891C1115.35 507.118 1116.07 508.718 1116.07 510.691C1116.07 512.771 1115.35 514.504 1113.91 515.891C1112.53 517.224 1110.66 517.891 1108.31 517.891ZM1140.62 567.571C1136.94 567.571 1133.39 567.144 1129.98 566.291C1126.62 565.384 1123.95 564.264 1121.98 562.931L1126.14 553.971C1128.11 555.198 1130.43 556.211 1133.1 557.011C1135.82 557.758 1138.48 558.131 1141.1 558.131C1143.98 558.131 1146 557.784 1147.18 557.091C1148.4 556.398 1149.02 555.438 1149.02 554.211C1149.02 553.198 1148.54 552.451 1147.58 551.971C1146.67 551.438 1145.44 551.038 1143.89 550.771C1142.35 550.504 1140.64 550.238 1138.78 549.971C1136.96 549.704 1135.12 549.358 1133.26 548.931C1131.39 548.451 1129.68 547.758 1128.14 546.851C1126.59 545.944 1125.34 544.718 1124.38 543.171C1123.47 541.624 1123.01 539.624 1123.01 537.171C1123.01 534.451 1123.79 532.051 1125.34 529.971C1126.94 527.891 1129.23 526.264 1132.22 525.091C1135.2 523.864 1138.78 523.251 1142.94 523.251C1145.87 523.251 1148.86 523.571 1151.9 524.211C1154.94 524.851 1157.47 525.784 1159.5 527.011L1155.34 535.891C1153.26 534.664 1151.15 533.838 1149.02 533.411C1146.94 532.931 1144.91 532.691 1142.94 532.691C1140.16 532.691 1138.14 533.064 1136.86 533.811C1135.58 534.558 1134.94 535.518 1134.94 536.691C1134.94 537.758 1135.39 538.558 1136.3 539.091C1137.26 539.624 1138.51 540.051 1140.06 540.371C1141.6 540.691 1143.28 540.984 1145.1 541.251C1146.96 541.464 1148.83 541.811 1150.7 542.291C1152.56 542.771 1154.24 543.464 1155.74 544.371C1157.28 545.224 1158.54 546.424 1159.5 547.971C1160.46 549.464 1160.94 551.438 1160.94 553.891C1160.94 556.558 1160.14 558.931 1158.54 561.011C1156.94 563.038 1154.62 564.638 1151.58 565.811C1148.59 566.984 1144.94 567.571 1140.62 567.571Z" fill="white"/>
<circle cx="1108.42" cy="508.207" r="11" transform="rotate(177.981 1108.42 508.207)" fill="white"/>
<circle cx="1171.31" cy="398.138" r="9" transform="rotate(177.981 1171.31 398.138)" fill="white"/>
<circle cx="1168.42" cy="283.205" r="9" transform="rotate(177.981 1168.42 283.205)" fill="white"/>
<circle cx="1118.16" cy="187.892" r="9" transform="rotate(177.981 1118.16 187.892)" fill="white"/>
<circle cx="894.924" cy="241.792" r="9" transform="rotate(177.981 894.924 241.792)" fill="white"/>
<circle cx="1094.16" cy="74.6677" r="9" transform="rotate(177.981 1094.16 74.6677)" fill="white"/>
<circle cx="848.016" cy="103.359" r="9" transform="rotate(177.981 848.016 103.359)" fill="white"/>
<line x1="1122.84" y1="489.286" x2="1166.84" y2="417.286" stroke="white" stroke-width="10"/>
<line x1="1163.75" y1="265.352" x2="1128.75" y2="203.352" stroke="white" stroke-width="10"/>
<line x1="1101.3" y1="191.749" x2="912.824" y2="238.054" stroke="white" stroke-width="10"/>
<line x1="1077.69" y1="78.8596" x2="865.447" y2="103.729" stroke="white" stroke-width="10"/>
<line x1="1111.59" y1="170.733" x2="1098.78" y2="91.1352" stroke="white" stroke-width="10"/>
<line x1="886.331" y1="228.382" x2="852.331" y2="119.382" stroke="white" stroke-width="10"/>
<line x1="1173.11" y1="378.091" x2="1170.11" y2="302.091" stroke="white" stroke-width="10"/>
<path d="M52.8 80V52H67.12C70.8 52 73.5467 52.68 75.36 54.04C77.1733 55.3733 78.08 57.1333 78.08 59.32C78.08 60.76 77.6933 62.0267 76.92 63.12C76.1733 64.1867 75.1067 65.04 73.72 65.68C72.36 66.2933 70.7333 66.6 68.84 66.6L69.64 64.68C71.6133 64.68 73.3333 64.9867 74.8 65.6C76.2667 66.1867 77.4 67.0533 78.2 68.2C79.0267 69.32 79.44 70.6933 79.44 72.32C79.44 74.7467 78.4533 76.64 76.48 78C74.5333 79.3333 71.68 80 67.92 80H52.8ZM60.64 74.28H67.28C68.64 74.28 69.6667 74.0533 70.36 73.6C71.08 73.12 71.44 72.4 71.44 71.44C71.44 70.48 71.08 69.7733 70.36 69.32C69.6667 68.84 68.64 68.6 67.28 68.6H60.08V63.12H66.08C67.4133 63.12 68.4133 62.8933 69.08 62.44C69.7467 61.9867 70.08 61.3067 70.08 60.4C70.08 59.4933 69.7467 58.8267 69.08 58.4C68.4133 57.9467 67.4133 57.72 66.08 57.72H60.64V74.28ZM92.3022 80.36C90.5422 80.36 88.9555 80.0133 87.5422 79.32C86.1555 78.6267 85.0622 77.5467 84.2622 76.08C83.4889 74.5867 83.1022 72.7067 83.1022 70.44V58.32H90.7022V69.2C90.7022 70.88 91.0089 72.08 91.6222 72.8C92.2622 73.52 93.1555 73.88 94.3022 73.88C95.0489 73.88 95.7289 73.7067 96.3422 73.36C96.9555 73.0133 97.4489 72.4667 97.8222 71.72C98.1955 70.9467 98.3822 69.96 98.3822 68.76V58.32H105.982V80H98.7422V73.88L100.142 75.6C99.3955 77.2 98.3155 78.4 96.9022 79.2C95.4889 79.9733 93.9555 80.36 92.3022 80.36ZM110.878 80V58.32H118.478V80H110.878ZM114.678 55.92C113.291 55.92 112.171 55.5333 111.318 54.76C110.464 53.9867 110.038 53.0267 110.038 51.88C110.038 50.7333 110.464 49.7733 111.318 49C112.171 48.2267 113.291 47.84 114.678 47.84C116.064 47.84 117.184 48.2133 118.038 48.96C118.891 49.68 119.318 50.6133 119.318 51.76C119.318 52.96 118.891 53.96 118.038 54.76C117.211 55.5333 116.091 55.92 114.678 55.92ZM123.417 80V50.32H131.017V80H123.417ZM147.823 80.36C145.05 80.36 142.89 79.68 141.343 78.32C139.796 76.9333 139.023 74.8533 139.023 72.08V53.48H146.623V72C146.623 72.7733 146.836 73.3867 147.263 73.84C147.69 74.2667 148.236 74.48 148.903 74.48C149.81 74.48 150.583 74.2533 151.223 73.8L153.103 79.12C152.463 79.5467 151.676 79.8533 150.743 80.04C149.81 80.2533 148.836 80.36 147.823 80.36ZM135.863 64.8V59.12H151.583V64.8H135.863ZM168.554 80V58.56C168.554 55.9467 169.328 53.8667 170.874 52.32C172.448 50.7467 174.688 49.96 177.594 49.96C178.528 49.96 179.448 50.0533 180.354 50.24C181.261 50.4267 182.021 50.7067 182.634 51.08L180.754 56.44C180.434 56.2533 180.074 56.1067 179.674 56C179.274 55.8667 178.874 55.8 178.474 55.8C177.674 55.8 177.048 56.04 176.594 56.52C176.168 56.9733 175.954 57.68 175.954 58.64V60.2L176.154 63.36V80H168.554ZM165.394 64.8V59.12H181.114V64.8H165.394ZM194.57 80.36C192.197 80.36 190.09 79.88 188.25 78.92C186.41 77.96 184.957 76.64 183.89 74.96C182.85 73.2533 182.33 71.3067 182.33 69.12C182.33 66.9333 182.85 65 183.89 63.32C184.957 61.64 186.41 60.3333 188.25 59.4C190.09 58.44 192.197 57.96 194.57 57.96C196.943 57.96 199.05 58.44 200.89 59.4C202.757 60.3333 204.21 61.64 205.25 63.32C206.29 65 206.81 66.9333 206.81 69.12C206.81 71.3067 206.29 73.2533 205.25 74.96C204.21 76.64 202.757 77.96 200.89 78.92C199.05 79.88 196.943 80.36 194.57 80.36ZM194.57 74.32C195.45 74.32 196.223 74.12 196.89 73.72C197.583 73.32 198.13 72.7333 198.53 71.96C198.93 71.16 199.13 70.2133 199.13 69.12C199.13 68.0267 198.93 67.1067 198.53 66.36C198.13 65.5867 197.583 65 196.89 64.6C196.223 64.2 195.45 64 194.57 64C193.717 64 192.943 64.2 192.25 64.6C191.583 65 191.037 65.5867 190.61 66.36C190.21 67.1067 190.01 68.0267 190.01 69.12C190.01 70.2133 190.21 71.16 190.61 71.96C191.037 72.7333 191.583 73.32 192.25 73.72C192.943 74.12 193.717 74.32 194.57 74.32ZM210.331 80V58.32H217.571V64.64L216.491 62.84C217.131 61.2133 218.171 60 219.611 59.2C221.051 58.3733 222.797 57.96 224.851 57.96V64.8C224.504 64.7467 224.197 64.72 223.931 64.72C223.691 64.6933 223.424 64.68 223.131 64.68C221.584 64.68 220.331 65.1067 219.371 65.96C218.411 66.7867 217.931 68.1467 217.931 70.04V80H210.331ZM247.586 80.36C245.746 80.36 243.946 80.1467 242.186 79.72C240.452 79.2933 239.052 78.76 237.986 78.12L240.266 72.92C241.279 73.5333 242.466 74.0267 243.826 74.4C245.186 74.7467 246.519 74.92 247.826 74.92C249.106 74.92 249.986 74.7867 250.466 74.52C250.972 74.2533 251.226 73.8933 251.226 73.44C251.226 73.0133 250.986 72.7067 250.506 72.52C250.052 72.3067 249.439 72.1467 248.666 72.04C247.919 71.9333 247.092 71.8133 246.186 71.68C245.279 71.5467 244.359 71.3733 243.426 71.16C242.519 70.92 241.679 70.5733 240.906 70.12C240.159 69.64 239.559 69 239.106 68.2C238.652 67.4 238.426 66.3867 238.426 65.16C238.426 63.7733 238.826 62.5467 239.626 61.48C240.452 60.3867 241.652 59.5333 243.226 58.92C244.799 58.28 246.719 57.96 248.986 57.96C250.506 57.96 252.039 58.12 253.586 58.44C255.159 58.7333 256.479 59.1867 257.546 59.8L255.266 64.96C254.199 64.3467 253.132 63.9333 252.066 63.72C250.999 63.48 249.986 63.36 249.026 63.36C247.746 63.36 246.839 63.5067 246.306 63.8C245.799 64.0933 245.546 64.4533 245.546 64.88C245.546 65.3067 245.772 65.64 246.226 65.88C246.679 66.0933 247.279 66.2667 248.026 66.4C248.799 66.5067 249.639 66.6267 250.546 66.76C251.452 66.8667 252.359 67.04 253.266 67.28C254.199 67.52 255.039 67.88 255.786 68.36C256.559 68.8133 257.172 69.44 257.626 70.24C258.079 71.0133 258.306 72.0133 258.306 73.24C258.306 74.5733 257.892 75.7733 257.066 76.84C256.266 77.9067 255.066 78.76 253.466 79.4C251.892 80.04 249.932 80.36 247.586 80.36ZM275.221 80.36C273.381 80.36 271.807 79.96 270.501 79.16C269.194 78.3333 268.194 77.1067 267.501 75.48C266.834 73.8267 266.501 71.72 266.501 69.16C266.501 66.5733 266.821 64.4667 267.461 62.84C268.101 61.1867 269.061 59.96 270.341 59.16C271.647 58.36 273.274 57.96 275.221 57.96C277.194 57.96 278.981 58.4267 280.581 59.36C282.207 60.2667 283.487 61.56 284.421 63.24C285.381 64.8933 285.861 66.8667 285.861 69.16C285.861 71.4533 285.381 73.44 284.421 75.12C283.487 76.8 282.207 78.0933 280.581 79C278.981 79.9067 277.194 80.36 275.221 80.36ZM261.581 87.76V58.32H268.821V62L268.781 69.16L269.181 76.36V87.76H261.581ZM273.621 74.32C274.474 74.32 275.234 74.12 275.901 73.72C276.594 73.32 277.141 72.7333 277.541 71.96C277.967 71.1867 278.181 70.2533 278.181 69.16C278.181 68.0667 277.967 67.1333 277.541 66.36C277.141 65.5867 276.594 65 275.901 64.6C275.234 64.2 274.474 64 273.621 64C272.767 64 271.994 64.2 271.301 64.6C270.634 65 270.087 65.5867 269.661 66.36C269.261 67.1333 269.061 68.0667 269.061 69.16C269.061 70.2533 269.261 71.1867 269.661 71.96C270.087 72.7333 270.634 73.32 271.301 73.72C271.994 74.12 272.767 74.32 273.621 74.32ZM300.753 80.36C298.193 80.36 295.953 79.88 294.033 78.92C292.14 77.9333 290.66 76.6 289.593 74.92C288.553 73.2133 288.033 71.28 288.033 69.12C288.033 66.96 288.54 65.04 289.553 63.36C290.593 61.6533 292.02 60.3333 293.833 59.4C295.646 58.44 297.686 57.96 299.953 57.96C302.086 57.96 304.033 58.4 305.793 59.28C307.553 60.1333 308.953 61.4 309.993 63.08C311.033 64.76 311.553 66.8 311.553 69.2C311.553 69.4667 311.54 69.7733 311.513 70.12C311.486 70.4667 311.46 70.7867 311.433 71.08H294.273V67.08H307.393L304.513 68.2C304.54 67.2133 304.353 66.36 303.953 65.64C303.58 64.92 303.046 64.36 302.353 63.96C301.686 63.56 300.9 63.36 299.993 63.36C299.086 63.36 298.286 63.56 297.593 63.96C296.926 64.36 296.406 64.9333 296.033 65.68C295.66 66.4 295.473 67.2533 295.473 68.24V69.4C295.473 70.4667 295.686 71.3867 296.113 72.16C296.566 72.9333 297.206 73.5333 298.033 73.96C298.86 74.36 299.846 74.56 300.993 74.56C302.06 74.56 302.966 74.4133 303.713 74.12C304.486 73.8 305.246 73.32 305.993 72.68L309.993 76.84C308.953 77.9867 307.673 78.8667 306.153 79.48C304.633 80.0667 302.833 80.36 300.753 80.36ZM326.417 80.36C323.857 80.36 321.617 79.88 319.697 78.92C317.804 77.9333 316.324 76.6 315.257 74.92C314.217 73.2133 313.697 71.28 313.697 69.12C313.697 66.96 314.204 65.04 315.217 63.36C316.257 61.6533 317.684 60.3333 319.497 59.4C321.311 58.44 323.351 57.96 325.617 57.96C327.751 57.96 329.697 58.4 331.457 59.28C333.217 60.1333 334.617 61.4 335.657 63.08C336.697 64.76 337.217 66.8 337.217 69.2C337.217 69.4667 337.204 69.7733 337.177 70.12C337.151 70.4667 337.124 70.7867 337.097 71.08H319.937V67.08H333.057L330.177 68.2C330.204 67.2133 330.017 66.36 329.617 65.64C329.244 64.92 328.711 64.36 328.017 63.96C327.351 63.56 326.564 63.36 325.657 63.36C324.751 63.36 323.951 63.56 323.257 63.96C322.591 64.36 322.071 64.9333 321.697 65.68C321.324 66.4 321.137 67.2533 321.137 68.24V69.4C321.137 70.4667 321.351 71.3867 321.777 72.16C322.231 72.9333 322.871 73.5333 323.697 73.96C324.524 74.36 325.511 74.56 326.657 74.56C327.724 74.56 328.631 74.4133 329.377 74.12C330.151 73.8 330.911 73.32 331.657 72.68L335.657 76.84C334.617 77.9867 333.337 78.8667 331.817 79.48C330.297 80.0667 328.497 80.36 326.417 80.36ZM350.161 80.36C348.188 80.36 346.388 79.9067 344.761 79C343.161 78.0667 341.881 76.7733 340.921 75.12C339.961 73.44 339.481 71.44 339.481 69.12C339.481 66.8267 339.961 64.8533 340.921 63.2C341.881 61.52 343.161 60.2267 344.761 59.32C346.388 58.4133 348.188 57.96 350.161 57.96C352.028 57.96 353.601 58.36 354.881 59.16C356.188 59.96 357.175 61.1867 357.841 62.84C358.508 64.4933 358.841 66.5867 358.841 69.12C358.841 71.7067 358.521 73.8267 357.881 75.48C357.241 77.1333 356.281 78.36 355.001 79.16C353.721 79.96 352.108 80.36 350.161 80.36ZM351.761 74.32C352.615 74.32 353.375 74.12 354.041 73.72C354.735 73.32 355.281 72.7333 355.681 71.96C356.081 71.16 356.281 70.2133 356.281 69.12C356.281 68.0267 356.081 67.1067 355.681 66.36C355.281 65.5867 354.735 65 354.041 64.6C353.375 64.2 352.615 64 351.761 64C350.881 64 350.095 64.2 349.401 64.6C348.735 65 348.201 65.5867 347.801 66.36C347.401 67.1067 347.201 68.0267 347.201 69.12C347.201 70.2133 347.401 71.16 347.801 71.96C348.201 72.7333 348.735 73.32 349.401 73.72C350.095 74.12 350.881 74.32 351.761 74.32ZM356.521 80V76.28L356.561 69.12L356.161 61.96V50.32H363.761V80H356.521ZM371.851 80.36C370.571 80.36 369.491 79.9333 368.611 79.08C367.731 78.2267 367.291 77.1467 367.291 75.84C367.291 74.48 367.731 73.4 368.611 72.6C369.491 71.7733 370.571 71.36 371.851 71.36C373.131 71.36 374.211 71.7733 375.091 72.6C375.971 73.4 376.411 74.48 376.411 75.84C376.411 77.1467 375.971 78.2267 375.091 79.08C374.211 79.9333 373.131 80.36 371.851 80.36ZM52.8 129V101H67.12C70.8 101 73.5467 101.68 75.36 103.04C77.1733 104.373 78.08 106.133 78.08 108.32C78.08 109.76 77.6933 111.027 76.92 112.12C76.1733 113.187 75.1067 114.04 73.72 114.68C72.36 115.293 70.7333 115.6 68.84 115.6L69.64 113.68C71.6133 113.68 73.3333 113.987 74.8 114.6C76.2667 115.187 77.4 116.053 78.2 117.2C79.0267 118.32 79.44 119.693 79.44 121.32C79.44 123.747 78.4533 125.64 76.48 127C74.5333 128.333 71.68 129 67.92 129H52.8ZM60.64 123.28H67.28C68.64 123.28 69.6667 123.053 70.36 122.6C71.08 122.12 71.44 121.4 71.44 120.44C71.44 119.48 71.08 118.773 70.36 118.32C69.6667 117.84 68.64 117.6 67.28 117.6H60.08V112.12H66.08C67.4133 112.12 68.4133 111.893 69.08 111.44C69.7467 110.987 70.08 110.307 70.08 109.4C70.08 108.493 69.7467 107.827 69.08 107.4C68.4133 106.947 67.4133 106.72 66.08 106.72H60.64V123.28ZM92.3022 129.36C90.5422 129.36 88.9555 129.013 87.5422 128.32C86.1555 127.627 85.0622 126.547 84.2622 125.08C83.4889 123.587 83.1022 121.707 83.1022 119.44V107.32H90.7022V118.2C90.7022 119.88 91.0089 121.08 91.6222 121.8C92.2622 122.52 93.1555 122.88 94.3022 122.88C95.0489 122.88 95.7289 122.707 96.3422 122.36C96.9555 122.013 97.4489 121.467 97.8222 120.72C98.1955 119.947 98.3822 118.96 98.3822 117.76V107.32H105.982V129H98.7422V122.88L100.142 124.6C99.3955 126.2 98.3155 127.4 96.9022 128.2C95.4889 128.973 93.9555 129.36 92.3022 129.36ZM110.878 129V107.32H118.478V129H110.878ZM114.678 104.92C113.291 104.92 112.171 104.533 111.318 103.76C110.464 102.987 110.038 102.027 110.038 100.88C110.038 99.7333 110.464 98.7733 111.318 98C112.171 97.2267 113.291 96.84 114.678 96.84C116.064 96.84 117.184 97.2133 118.038 97.96C118.891 98.68 119.318 99.6133 119.318 100.76C119.318 101.96 118.891 102.96 118.038 103.76C117.211 104.533 116.091 104.92 114.678 104.92ZM123.417 129V99.32H131.017V129H123.417ZM147.823 129.36C145.05 129.36 142.89 128.68 141.343 127.32C139.796 125.933 139.023 123.853 139.023 121.08V102.48H146.623V121C146.623 121.773 146.836 122.387 147.263 122.84C147.69 123.267 148.236 123.48 148.903 123.48C149.81 123.48 150.583 123.253 151.223 122.8L153.103 128.12C152.463 128.547 151.676 128.853 150.743 129.04C149.81 129.253 148.836 129.36 147.823 129.36ZM135.863 113.8V108.12H151.583V113.8H135.863ZM168.554 129V107.56C168.554 104.947 169.328 102.867 170.874 101.32C172.448 99.7467 174.688 98.96 177.594 98.96C178.528 98.96 179.448 99.0533 180.354 99.24C181.261 99.4267 182.021 99.7067 182.634 100.08L180.754 105.44C180.434 105.253 180.074 105.107 179.674 105C179.274 104.867 178.874 104.8 178.474 104.8C177.674 104.8 177.048 105.04 176.594 105.52C176.168 105.973 175.954 106.68 175.954 107.64V109.2L176.154 112.36V129H168.554ZM165.394 113.8V108.12H181.114V113.8H165.394ZM194.57 129.36C192.197 129.36 190.09 128.88 188.25 127.92C186.41 126.96 184.957 125.64 183.89 123.96C182.85 122.253 182.33 120.307 182.33 118.12C182.33 115.933 182.85 114 183.89 112.32C184.957 110.64 186.41 109.333 188.25 108.4C190.09 107.44 192.197 106.96 194.57 106.96C196.943 106.96 199.05 107.44 200.89 108.4C202.757 109.333 204.21 110.64 205.25 112.32C206.29 114 206.81 115.933 206.81 118.12C206.81 120.307 206.29 122.253 205.25 123.96C204.21 125.64 202.757 126.96 200.89 127.92C199.05 128.88 196.943 129.36 194.57 129.36ZM194.57 123.32C195.45 123.32 196.223 123.12 196.89 122.72C197.583 122.32 198.13 121.733 198.53 120.96C198.93 120.16 199.13 119.213 199.13 118.12C199.13 117.027 198.93 116.107 198.53 115.36C198.13 114.587 197.583 114 196.89 113.6C196.223 113.2 195.45 113 194.57 113C193.717 113 192.943 113.2 192.25 113.6C191.583 114 191.037 114.587 190.61 115.36C190.21 116.107 190.01 117.027 190.01 118.12C190.01 119.213 190.21 120.16 190.61 120.96C191.037 121.733 191.583 122.32 192.25 122.72C192.943 123.12 193.717 123.32 194.57 123.32ZM210.331 129V107.32H217.571V113.64L216.491 111.84C217.131 110.213 218.171 109 219.611 108.2C221.051 107.373 222.797 106.96 224.851 106.96V113.8C224.504 113.747 224.197 113.72 223.931 113.72C223.691 113.693 223.424 113.68 223.131 113.68C221.584 113.68 220.331 114.107 219.371 114.96C218.411 115.787 217.931 117.147 217.931 119.04V129H210.331ZM247.586 129.36C245.746 129.36 243.946 129.147 242.186 128.72C240.452 128.293 239.052 127.76 237.986 127.12L240.266 121.92C241.279 122.533 242.466 123.027 243.826 123.4C245.186 123.747 246.519 123.92 247.826 123.92C249.106 123.92 249.986 123.787 250.466 123.52C250.972 123.253 251.226 122.893 251.226 122.44C251.226 122.013 250.986 121.707 250.506 121.52C250.052 121.307 249.439 121.147 248.666 121.04C247.919 120.933 247.092 120.813 246.186 120.68C245.279 120.547 244.359 120.373 243.426 120.16C242.519 119.92 241.679 119.573 240.906 119.12C240.159 118.64 239.559 118 239.106 117.2C238.652 116.4 238.426 115.387 238.426 114.16C238.426 112.773 238.826 111.547 239.626 110.48C240.452 109.387 241.652 108.533 243.226 107.92C244.799 107.28 246.719 106.96 248.986 106.96C250.506 106.96 252.039 107.12 253.586 107.44C255.159 107.733 256.479 108.187 257.546 108.8L255.266 113.96C254.199 113.347 253.132 112.933 252.066 112.72C250.999 112.48 249.986 112.36 249.026 112.36C247.746 112.36 246.839 112.507 246.306 112.8C245.799 113.093 245.546 113.453 245.546 113.88C245.546 114.307 245.772 114.64 246.226 114.88C246.679 115.093 247.279 115.267 248.026 115.4C248.799 115.507 249.639 115.627 250.546 115.76C251.452 115.867 252.359 116.04 253.266 116.28C254.199 116.52 255.039 116.88 255.786 117.36C256.559 117.813 257.172 118.44 257.626 119.24C258.079 120.013 258.306 121.013 258.306 122.24C258.306 123.573 257.892 124.773 257.066 125.84C256.266 126.907 255.066 127.76 253.466 128.4C251.892 129.04 249.932 129.36 247.586 129.36ZM272.661 129.36C270.261 129.36 268.114 128.88 266.221 127.92C264.354 126.96 262.887 125.64 261.821 123.96C260.754 122.253 260.221 120.307 260.221 118.12C260.221 115.933 260.754 114 261.821 112.32C262.887 110.64 264.354 109.333 266.221 108.4C268.114 107.44 270.261 106.96 272.661 106.96C275.114 106.96 277.234 107.48 279.021 108.52C280.807 109.56 282.074 111.027 282.821 112.92L276.941 115.92C276.434 114.907 275.807 114.173 275.061 113.72C274.314 113.24 273.501 113 272.621 113C271.741 113 270.941 113.2 270.221 113.6C269.501 114 268.927 114.587 268.501 115.36C268.101 116.107 267.901 117.027 267.901 118.12C267.901 119.24 268.101 120.187 268.501 120.96C268.927 121.733 269.501 122.32 270.221 122.72C270.941 123.12 271.741 123.32 272.621 123.32C273.501 123.32 274.314 123.093 275.061 122.64C275.807 122.16 276.434 121.413 276.941 120.4L282.821 123.4C282.074 125.293 280.807 126.76 279.021 127.8C277.234 128.84 275.114 129.36 272.661 129.36ZM298.922 129V124.96L298.402 123.96V116.52C298.402 115.32 298.029 114.4 297.282 113.76C296.562 113.093 295.402 112.76 293.802 112.76C292.762 112.76 291.709 112.933 290.642 113.28C289.576 113.6 288.669 114.053 287.922 114.64L285.362 109.48C286.589 108.68 288.056 108.067 289.762 107.64C291.496 107.187 293.216 106.96 294.922 106.96C298.442 106.96 301.162 107.773 303.082 109.4C305.029 111 306.002 113.52 306.002 116.96V129H298.922ZM292.522 129.36C290.789 129.36 289.322 129.067 288.122 128.48C286.922 127.893 286.002 127.093 285.362 126.08C284.749 125.067 284.442 123.933 284.442 122.68C284.442 121.347 284.776 120.2 285.442 119.24C286.136 118.253 287.189 117.507 288.602 117C290.016 116.467 291.842 116.2 294.082 116.2H299.202V120.16H295.122C293.896 120.16 293.029 120.36 292.522 120.76C292.042 121.16 291.802 121.693 291.802 122.36C291.802 123.027 292.056 123.56 292.562 123.96C293.069 124.36 293.762 124.56 294.642 124.56C295.469 124.56 296.216 124.36 296.882 123.96C297.576 123.533 298.082 122.893 298.402 122.04L299.442 124.84C299.042 126.333 298.256 127.467 297.082 128.24C295.936 128.987 294.416 129.36 292.522 129.36ZM310.799 129V99.32H318.399V129H310.799ZM334.698 129.36C332.138 129.36 329.898 128.88 327.978 127.92C326.085 126.933 324.605 125.6 323.538 123.92C322.498 122.213 321.978 120.28 321.978 118.12C321.978 115.96 322.485 114.04 323.498 112.36C324.538 110.653 325.965 109.333 327.778 108.4C329.592 107.44 331.632 106.96 333.898 106.96C336.032 106.96 337.978 107.4 339.738 108.28C341.498 109.133 342.898 110.4 343.938 112.08C344.978 113.76 345.498 115.8 345.498 118.2C345.498 118.467 345.485 118.773 345.458 119.12C345.432 119.467 345.405 119.787 345.378 120.08H328.218V116.08H341.338L338.458 117.2C338.485 116.213 338.298 115.36 337.898 114.64C337.525 113.92 336.992 113.36 336.298 112.96C335.632 112.56 334.845 112.36 333.938 112.36C333.032 112.36 332.232 112.56 331.538 112.96C330.872 113.36 330.352 113.933 329.978 114.68C329.605 115.4 329.418 116.253 329.418 117.24V118.4C329.418 119.467 329.632 120.387 330.058 121.16C330.512 121.933 331.152 122.533 331.978 122.96C332.805 123.36 333.792 123.56 334.938 123.56C336.005 123.56 336.912 123.413 337.658 123.12C338.432 122.8 339.192 122.32 339.938 121.68L343.938 125.84C342.898 126.987 341.618 127.867 340.098 128.48C338.578 129.067 336.778 129.36 334.698 129.36ZM352.203 129.36C350.923 129.36 349.843 128.933 348.963 128.08C348.083 127.227 347.643 126.147 347.643 124.84C347.643 123.48 348.083 122.4 348.963 121.6C349.843 120.773 350.923 120.36 352.203 120.36C353.483 120.36 354.563 120.773 355.443 121.6C356.323 122.4 356.763 123.48 356.763 124.84C356.763 126.147 356.323 127.227 355.443 128.08C354.563 128.933 353.483 129.36 352.203 129.36Z" fill="white"/>
</svg>
