<svg width="348" height="466" viewBox="0 0 348 466" fill="none" xmlns="http://www.w3.org/2000/svg">
<circle cx="270.415" cy="445.207" r="11" transform="rotate(177.981 270.415 445.207)" fill="white"/>
<circle cx="333.311" cy="335.138" r="9" transform="rotate(177.981 333.311 335.138)" fill="white"/>
<circle cx="330.415" cy="220.205" r="9" transform="rotate(177.981 330.415 220.205)" fill="white"/>
<circle cx="280.163" cy="124.892" r="9" transform="rotate(177.981 280.163 124.892)" fill="white"/>
<circle cx="56.9238" cy="178.792" r="9" transform="rotate(177.981 56.9238 178.792)" fill="white"/>
<circle cx="256.158" cy="11.6677" r="9" transform="rotate(177.981 256.158 11.6677)" fill="white"/>
<circle cx="10.0161" cy="40.3591" r="9" transform="rotate(177.981 10.0161 40.3591)" fill="white"/>
<line x1="284.838" y1="426.286" x2="328.838" y2="354.286" stroke="white" stroke-width="10"/>
<line x1="325.75" y1="202.352" x2="290.75" y2="140.352" stroke="white" stroke-width="10"/>
<line x1="263.297" y1="128.749" x2="74.8243" y2="175.054" stroke="white" stroke-width="10"/>
<line x1="239.686" y1="15.8596" x2="27.4466" y2="40.7286" stroke="white" stroke-width="10"/>
<line x1="273.593" y1="107.733" x2="260.78" y2="28.1352" stroke="white" stroke-width="10"/>
<line x1="48.3308" y1="165.382" x2="14.3308" y2="56.3824" stroke="white" stroke-width="10"/>
<line x1="335.108" y1="315.091" x2="332.108" y2="239.091" stroke="white" stroke-width="10"/>
</svg>
