<svg width="349" height="466" viewBox="0 0 349 466" fill="none" xmlns="http://www.w3.org/2000/svg">
<circle cx="271.311" cy="445.313" r="11" transform="rotate(177.981 271.311 445.313)" fill="black"/>
<circle cx="334.207" cy="335.245" r="9" transform="rotate(177.981 334.207 335.245)" fill="black"/>
<circle cx="331.311" cy="220.312" r="9" transform="rotate(177.981 331.311 220.312)" fill="black"/>
<circle cx="281.059" cy="124.999" r="9" transform="rotate(177.981 281.059 124.999)" fill="black"/>
<circle cx="57.8198" cy="178.899" r="9" transform="rotate(177.981 57.8198 178.899)" fill="black"/>
<circle cx="257.054" cy="11.7742" r="9" transform="rotate(177.981 257.054 11.7742)" fill="black"/>
<circle cx="10.9121" cy="40.4656" r="9" transform="rotate(177.981 10.9121 40.4656)" fill="black"/>
<line x1="285.734" y1="426.393" x2="329.734" y2="354.393" stroke="black" stroke-width="10"/>
<line x1="326.646" y1="202.458" x2="291.646" y2="140.458" stroke="black" stroke-width="10"/>
<line x1="264.193" y1="128.856" x2="75.7203" y2="175.16" stroke="black" stroke-width="10"/>
<line x1="240.582" y1="15.966" x2="28.3426" y2="40.8351" stroke="black" stroke-width="10"/>
<line x1="274.489" y1="107.84" x2="261.676" y2="28.2416" stroke="black" stroke-width="10"/>
<line x1="49.2268" y1="165.489" x2="15.2268" y2="56.4889" stroke="black" stroke-width="10"/>
<line x1="336.004" y1="315.197" x2="333.004" y2="239.197" stroke="black" stroke-width="10"/>
</svg>
