<svg width="600" height="600" viewBox="0 0 600 600" fill="none" xmlns="http://www.w3.org/2000/svg">
<rect width="600" height="600" fill="white"/>
<circle cx="394.346" cy="512.277" r="10" transform="rotate(177.981 394.346 512.277)" fill="black"/>
<circle cx="457.76" cy="402.691" r="7.5" transform="rotate(177.981 457.76 402.691)" fill="black"/>
<circle cx="457.76" cy="285.691" r="7.5" transform="rotate(177.981 457.76 285.691)" fill="black"/>
<circle cx="404.611" cy="192.445" r="7.5" transform="rotate(177.981 404.611 192.445)" fill="black"/>
<circle cx="181.372" cy="246.345" r="7.5" transform="rotate(177.981 181.372 246.345)" fill="black"/>
<circle cx="380.606" cy="79.2204" r="7.5" transform="rotate(177.981 380.606 79.2204)" fill="black"/>
<circle cx="134.464" cy="107.912" r="7.5" transform="rotate(177.981 134.464 107.912)" fill="black"/>
<line x1="399.378" y1="496.761" x2="456.378" y2="417.761" stroke="black" stroke-width="4"/>
<line x1="456.265" y1="272.927" x2="415.265" y2="201.497" stroke="black" stroke-width="4"/>
<line x1="384.509" y1="192.612" x2="197" y2="238.248" stroke="black" stroke-width="4"/>
<line x1="359.263" y1="79.4663" x2="149.992" y2="103.856" stroke="black" stroke-width="4"/>
<line x1="399.451" y1="173.363" x2="386.638" y2="93.7648" stroke="black" stroke-width="4"/>
<line x1="171.306" y1="228.687" x2="140.623" y2="124.704" stroke="black" stroke-width="4"/>
<line x1="456" y1="388.931" x2="456" y2="298.931" stroke="black" stroke-width="4"/>
</svg>
